<?xml version="1.0" encoding="utf-8"?>
<!-- Generator: Adobe Illustrator 27.0.0, SVG Export Plug-In . SVG Version: 6.00 Build 0)  -->
<svg version="1.1" id="图层_1" xmlns="http://www.w3.org/2000/svg" xmlns:xlink="http://www.w3.org/1999/xlink" x="0px" y="0px"
	 viewBox="0 0 128 128" style="enable-background:new 0 0 128 128;" xml:space="preserve">
<path d="M32.5,113.3h-7.7c-5.7,0-10.4-4.7-10.4-10.4V86.2c0-5.7,4.7-10.4,10.4-10.4h7.7c5.7,0,10.4,4.7,10.4,10.4v16.7
	C42.9,108.7,38.2,113.3,32.5,113.3z M24.8,82.7c-1.9,0-3.5,1.6-3.5,3.5v16.7c0,1.9,1.6,3.5,3.5,3.5h7.7c1.9,0,3.5-1.6,3.5-3.5V86.2
	c0-1.9-1.6-3.5-3.5-3.5H24.8z M67.5,113.3h-7.7c-5.7,0-10.4-4.7-10.4-10.4V86.2c0-5.7,4.7-10.4,10.4-10.4h7.7
	c5.7,0,10.4,4.7,10.4,10.4v16.7C77.9,108.7,73.2,113.3,67.5,113.3z M59.8,82.7c-1.9,0-3.5,1.6-3.5,3.5v16.7c0,1.9,1.6,3.5,3.5,3.5
	h7.7c1.9,0,3.5-1.6,3.5-3.5V86.2c0-1.9-1.6-3.5-3.5-3.5H59.8z M88.2,50.4H39.1c-5.7,0-10.4-4.7-10.4-10.4V23.3
	c0-5.7,4.7-10.4,10.4-10.4h49.2c5.7,0,10.4,4.7,10.4,10.4V40C98.6,45.7,94,50.4,88.2,50.4z M39.1,19.8c-1.9,0-3.5,1.6-3.5,3.5V40
	c0,1.9,1.6,3.5,3.5,3.5h49.2c1.9,0,3.5-1.6,3.5-3.5V23.3c0-1.9-1.6-3.5-3.5-3.5C88.2,19.8,39.1,19.8,39.1,19.8z M102.5,113.3h-7.7
	c-5.7,0-10.4-4.7-10.4-10.4V86.2c0-5.7,4.7-10.4,10.4-10.4h7.7c5.7,0,10.4,4.7,10.4,10.4v16.7C112.9,108.7,108.2,113.3,102.5,113.3z
	 M94.8,82.7c-1.9,0-3.5,1.6-3.5,3.5v16.7c0,1.9,1.6,3.5,3.5,3.5h7.7c1.9,0,3.5-1.6,3.5-3.5V86.2c0-1.9-1.6-3.5-3.5-3.5H94.8z"/>
<path d="M60.2,46.9h6.9v31.6h-6.9L60.2,46.9z"/>
<path d="M102.1,79.6h-6.9V68.5c0-1-0.8-1.7-1.7-1.7H33.9c-1,0-1.7,0.8-1.7,1.7v11.2h-6.9V68.5c0-4.8,3.9-8.7,8.7-8.7h59.6
	c4.8,0,8.7,3.9,8.7,8.7v11.1H102.1z"/>
</svg>
