<?xml version="1.0" encoding="utf-8"?>
<!-- Generator: Adobe Illustrator 27.0.0, SVG Export Plug-In . SVG Version: 6.00 Build 0)  -->
<svg version="1.1" id="图层_1" xmlns="http://www.w3.org/2000/svg" xmlns:xlink="http://www.w3.org/1999/xlink" x="0px" y="0px"
	 viewBox="0 0 128 128" style="enable-background:new 0 0 128 128;" xml:space="preserve">
<path d="M114.6,73.3l-5.3-6.1l-0.1-0.1c-1.6-1.6-3.8-2.5-6.1-2.5c-2.3,0-4.4,0.9-6.1,2.5L55.6,101l-0.5,0.4v17.9h17.6l41.6-33.8h0.1
	l0.1-0.1C117.9,82.1,117.9,76.7,114.6,73.3z M69.2,109.4h-4.1v-4.1l37.7-30.2l3.7,4.2L69.2,109.4z"/>
<path d="M29,91l-6.6,5.9L22.2,97V18.1h80.1v34.8l10,8.2v-48c0-2.8-2.2-5-5-5H17.2c-2.8,0-5,2.2-5,5v106h0.1L29,104.3l16.8,14.9
	v-13.4l-10.2-9L29,91z"/>
<path d="M36.9,42.8h33.2c2.7,0,5-2.2,5-5c0-2.7-2.2-5-5-5H36.9c-2.7,0-5,2.2-5,5C31.9,40.6,34.2,42.8,36.9,42.8z M32,63.5
	c0,2.7,2.2,5,5,5h41.8c2.7,0,5-2.2,5-5c0-2.7-2.2-5-5-5H36.9C34.2,58.5,31.9,60.7,32,63.5z"/>
</svg>
