<?xml version="1.0" encoding="utf-8"?>
<!-- Generator: Adobe Illustrator 27.0.0, SVG Export Plug-In . SVG Version: 6.00 Build 0)  -->
<svg version="1.1" id="图层_1" xmlns="http://www.w3.org/2000/svg" xmlns:xlink="http://www.w3.org/1999/xlink" x="0px" y="0px"
	 viewBox="0 0 128.1 128" style="enable-background:new 0 0 128.1 128;" xml:space="preserve">
<path d="M96,20H80C77.8,11.4,69.1,6.3,60.5,8.5C54.9,9.9,50.5,14.4,49,20H32c-4.4,0-8,3.6-8,8v84c0,4.4,3.6,8,8,8h64
	c4.4,0,8-3.6,8-8V28C104,23.6,100.4,20,96,20z M64.5,12c2.2,0,4,1.8,4,4s-1.8,4-4,4c-2.2,0-4-1.8-4-4S62.3,12,64.5,12z M96,112H32
	V28h64V112z"/>
<path d="M40,52h8v8h-8V52z M56,52h32v8H56V52z M40,68h8v8h-8V68z M56,68h32v8H56V68z M40,84h8v8h-8V84z M56,84h32v8H56V84z"/>
</svg>
