<?xml version="1.0" encoding="utf-8"?>
<!-- Generator: Adobe Illustrator 27.0.0, SVG Export Plug-In . SVG Version: 6.00 Build 0)  -->
<svg version="1.1" id="图层_1" xmlns="http://www.w3.org/2000/svg" xmlns:xlink="http://www.w3.org/1999/xlink" x="0px" y="0px"
	 viewBox="0 0 128 128" style="enable-background:new 0 0 128 128;" xml:space="preserve">
<path d="M101.9,105.7H26.1c-5,0-9-4-9-9v-64c0-5,4-9,9-9h75.9c5,0,9,4,9,9v64C110.9,101.7,106.9,105.7,101.9,105.7z M26.1,29.7
	c-1.7,0-3,1.3-3,3v64c0,1.7,1.3,3,3,3h75.9c1.7,0,3-1.3,3-3v-64c0-1.7-1.3-3-3-3H26.1z"/>
<path d="M63.1,45.9h34.9v6H63.1V45.9z M63.1,75.4h34.9v6H63.1V75.4z M43,88.9c-5.8,0-10.5-4.7-10.5-10.5S37.2,68,43,68
	s10.5,4.7,10.5,10.5S48.7,88.9,43,88.9z M43,73.5c-2.7,0-5,2.2-5,5s2.2,5,5,5s5-2.2,5-5S45.7,73.5,43,73.5z M38.6,46.2
	c-0.1-0.2-0.4-0.3-0.6-0.3h-4.4c-0.6,0-1,0.7-0.6,1.3l7.4,10.2c0.3,0.4,1,0.4,1.3,0L53,41.6c0.4-0.5,0-1.3-0.6-1.3h-4.4
	c-0.3,0-0.5,0.1-0.6,0.3l-6.3,8.8C40.9,49.4,38.6,46.2,38.6,46.2z"/>
</svg>
